<svg xmlns="http://www.w3.org/2000/svg" xmlns:xlink="http://www.w3.org/1999/xlink" width="479" height="261"><g><text style="font-family: sans-serif; fill: rgb(59, 59, 59); font-size: 0.85rem; font-weight: bold; text-anchor: middle;" transform="translate(239.5, 20)"><tspan x="0" dy="0em">Life expectancy (years) in Albania</tspan></text></g><g transform="translate(10, 25)"><svg><svg xmlns="http://www.w3.org/2000/svg" xmlns:xlink="http://www.w3.org/1999/xlink" width="459" height="194"><g class="x axis" transform="translate(0, 164)" fill="none" font-size="10" font-family="sans-serif" text-anchor="middle"><path class="domain" stroke="#999" d="M0,0.5H449.5" transform="translate(0, 0)"/><g class="tick" opacity="1" transform="translate(22.11929727679505,0)"><line stroke="#999" y2="6" stroke-width="0.5"/><text fill="currentColor" y="9" dy="0.71em">1960</text></g><g class="tick" opacity="1" transform="translate(93.3598425119365,0)"><line stroke="#999" y2="6" stroke-width="0.5"/><text fill="currentColor" y="9" dy="0.71em">1970</text></g><g class="tick" opacity="1" transform="translate(164.58088581846172,0)"><line stroke="#999" y2="6" stroke-width="0.5"/><text fill="currentColor" y="9" dy="0.71em">1980</text></g><g class="tick" opacity="1" transform="translate(235.8214310536032,0)"><line stroke="#999" y2="6" stroke-width="0.5"/><text fill="currentColor" y="9" dy="0.71em">1990</text></g><g class="tick" opacity="1" transform="translate(307.0424743601284,0)"><line stroke="#999" y2="6" stroke-width="0.5"/><text fill="currentColor" y="9" dy="0.71em">2000</text></g><g class="tick" opacity="1" transform="translate(378.2830195952698,0)"><line stroke="#999" y2="6" stroke-width="0.5"/><text fill="currentColor" y="9" dy="0.71em">2010</text></g></g><g class="y axis" transform="translate(449, 0)" fill="none" font-size="10" font-family="sans-serif" text-anchor="end"><g class="tick" opacity="1" transform="translate(0,164.5)"><line stroke="currentColor" x2="-449" class="grid-line" style="stroke: rgb(153, 153, 153); stroke-width: 0.5; stroke-opacity: 0.5; stroke-dasharray: 2, 2;"/><text fill="currentColor" x="-449" dy="-4" style="fill: rgb(43, 41, 41); font-family: Roboto; shape-rendering: crispedges;" transform="translate(11.615234375, 0)">0</text></g><g class="tick" opacity="1" transform="translate(0,128.5)"><line stroke="currentColor" x2="-449" class="grid-line" style="stroke: rgb(153, 153, 153); stroke-width: 0.5; stroke-opacity: 0.5; stroke-dasharray: 2, 2;"/><text fill="currentColor" x="-449" dy="-4" style="fill: rgb(43, 41, 41); font-family: Roboto; shape-rendering: crispedges;" transform="translate(11.615234375, 0)">20</text></g><g class="tick" opacity="1" transform="translate(0,92.5)"><line stroke="currentColor" x2="-449" class="grid-line" style="stroke: rgb(153, 153, 153); stroke-width: 0.5; stroke-opacity: 0.5; stroke-dasharray: 2, 2;"/><text fill="currentColor" x="-449" dy="-4" style="fill: rgb(43, 41, 41); font-family: Roboto; shape-rendering: crispedges;" transform="translate(11.615234375, 0)">40</text></g><g class="tick" opacity="1" transform="translate(0,56.5)"><line stroke="currentColor" x2="-449" class="grid-line" style="stroke: rgb(153, 153, 153); stroke-width: 0.5; stroke-opacity: 0.5; stroke-dasharray: 2, 2;"/><text fill="currentColor" x="-449" dy="-4" style="fill: rgb(43, 41, 41); font-family: Roboto; shape-rendering: crispedges;" transform="translate(11.615234375, 0)">60</text></g><g class="tick" opacity="1" transform="translate(0,20.5)"><line stroke="currentColor" x2="-449" class="grid-line" style="stroke: rgb(153, 153, 153); stroke-width: 0.5; stroke-opacity: 0.5; stroke-dasharray: 2, 2;"/><text fill="currentColor" x="-449" dy="-4" style="fill: rgb(43, 41, 41); font-family: Roboto; shape-rendering: crispedges;" transform="translate(11.615234375, 0)">80</text></g></g><g class="highlight"/><g class="chart-area"><path class="line" d="M449,22.365199999999987L441.8817960550707,22.568600000000007L434.7635921101415,22.775600000000008L427.6453881652122,23.00060000000001L420.50768229166664,23.2508L413.3894783467374,23.554999999999996L406.27127440180817,23.936600000000002L399.1530704568788,24.402800000000003L392.01536458333334,24.946400000000015L384.8971606384041,25.554800000000004L377.77895669347475,26.188399999999998L370.6607527485455,26.802199999999992L363.52304687500003,27.35839999999999L356.4048429300707,27.837199999999992L349.2866389851414,28.238599999999998L342.16843504021216,28.58960000000001L335.0307291666667,28.929800000000004L327.9125252217374,29.309599999999996L320.79432127680815,29.75780000000001L313.67611733187886,30.281600000000005L306.5384114583333,30.880999999999997L299.420207513404,31.543399999999988L292.3020035684748,32.2256L285.1837996235455,32.89160000000001L278.04609374999995,33.50899999999999L270.9278898050708,34.031000000000006L263.8096858601415,34.4144L256.6914819152122,34.652L249.55377604166668,34.756399999999985L242.43557209673742,34.754599999999996L235.31736815180813,34.6952L228.19916420687883,34.652L221.06145833333332,34.682599999999994L213.94325438840409,34.831999999999994L206.8250504434748,35.11099999999999L199.70684649854553,35.50159999999998L192.56914062500002,35.9588L185.4509366800707,36.423199999999994L178.33273273514146,36.857L171.2145287902122,37.2512L164.07682291666666,37.625600000000006L156.9586189717374,38.0162L149.84041502680813,38.46439999999998L142.72221108187884,38.993600000000015L135.58450520833333,39.602000000000004L128.46630126340406,40.275199999999984L121.34809731847479,40.98259999999999L114.22989337354552,41.6846L107.09218750000001,42.3524L99.97398355507073,42.97340000000001L92.85577961014145,43.516999999999996L85.73757566521219,43.959800000000016L78.59986979166666,44.32340000000001L71.4816658467374,44.6528L64.36346190180812,45.00200000000001L57.245257956878845,45.47000000000001L50.10755208333333,46.1666L42.98934813840406,47.154799999999994L35.87114419347479,48.458000000000006L28.752940248545517,50.0582L21.615234375,51.890600000000006" style="stroke: rgb(211, 25, 16); fill: none; stroke-width: 2.5px;"/></g></svg></svg></g><g transform="translate(10, 249)"><text style="fill: rgb(59, 59, 59); font-family: sans-serif; font-size: 0.7rem;"><tspan x="0" dy="0em">Data from datacatalog.worldbank.org via Data Commons</tspan></text></g></svg>