<svg xmlns="http://www.w3.org/2000/svg" xmlns:xlink="http://www.w3.org/1999/xlink" width="479" height="261"><g><text style="font-family: sans-serif; fill: rgb(59, 59, 59); font-size: 0.85rem; font-weight: bold; text-anchor: middle;" transform="translate(239.5, 20)"><tspan x="0" dy="0em">Infant mortality rate in Albania</tspan></text></g><g transform="translate(10, 25)"><svg><svg xmlns="http://www.w3.org/2000/svg" xmlns:xlink="http://www.w3.org/1999/xlink" width="459" height="194"><g class="x axis" transform="translate(0, 164)" fill="none" font-size="10" font-family="sans-serif" text-anchor="middle"><path class="domain" stroke="#999" d="M0,0.5H449.5" transform="translate(0, 0)"/><g class="tick" opacity="1" transform="translate(44.85777198651398,0)"><line stroke="#999" y2="6" stroke-width="0.5"/><text fill="currentColor" y="9" dy="0.71em">1980</text></g><g class="tick" opacity="1" transform="translate(148.6260891035841,0)"><line stroke="#999" y2="6" stroke-width="0.5"/><text fill="currentColor" y="9" dy="0.71em">1990</text></g><g class="tick" opacity="1" transform="translate(252.3659998923988,0)"><line stroke="#999" y2="6" stroke-width="0.5"/><text fill="currentColor" y="9" dy="0.71em">2000</text></g><g class="tick" opacity="1" transform="translate(356.13431700946893,0)"><line stroke="#999" y2="6" stroke-width="0.5"/><text fill="currentColor" y="9" dy="0.71em">2010</text></g></g><g class="y axis" transform="translate(449, 0)" fill="none" font-size="10" font-family="sans-serif" text-anchor="end"><g class="tick" opacity="1" transform="translate(0,164.5)"><line stroke="currentColor" x2="-449" class="grid-line" style="stroke: rgb(153, 153, 153); stroke-width: 0.5; stroke-opacity: 0.5; stroke-dasharray: 2, 2;"/><text fill="currentColor" x="-449" dy="-4" style="fill: rgb(43, 41, 41); font-family: Roboto; shape-rendering: crispedges;" transform="translate(13.615234375, 0)">0%</text></g><g class="tick" opacity="1" transform="translate(0,128.5)"><line stroke="currentColor" x2="-449" class="grid-line" style="stroke: rgb(153, 153, 153); stroke-width: 0.5; stroke-opacity: 0.5; stroke-dasharray: 2, 2;"/><text fill="currentColor" x="-449" dy="-4" style="fill: rgb(43, 41, 41); font-family: Roboto; shape-rendering: crispedges;" transform="translate(13.615234375, 0)">2%</text></g><g class="tick" opacity="1" transform="translate(0,92.5)"><line stroke="currentColor" x2="-449" class="grid-line" style="stroke: rgb(153, 153, 153); stroke-width: 0.5; stroke-opacity: 0.5; stroke-dasharray: 2, 2;"/><text fill="currentColor" x="-449" dy="-4" style="fill: rgb(43, 41, 41); font-family: Roboto; shape-rendering: crispedges;" transform="translate(13.615234375, 0)">4%</text></g><g class="tick" opacity="1" transform="translate(0,56.5)"><line stroke="currentColor" x2="-449" class="grid-line" style="stroke: rgb(153, 153, 153); stroke-width: 0.5; stroke-opacity: 0.5; stroke-dasharray: 2, 2;"/><text fill="currentColor" x="-449" dy="-4" style="fill: rgb(43, 41, 41); font-family: Roboto; shape-rendering: crispedges;" transform="translate(13.615234375, 0)">6%</text></g><g class="tick" opacity="1" transform="translate(0,20.5)"><line stroke="currentColor" x2="-449" class="grid-line" style="stroke: rgb(153, 153, 153); stroke-width: 0.5; stroke-opacity: 0.5; stroke-dasharray: 2, 2;"/><text fill="currentColor" x="-449" dy="-4" style="fill: rgb(43, 41, 41); font-family: Roboto; shape-rendering: crispedges;" transform="translate(13.615234375, 0)">8%</text></g></g><g class="highlight"/><g class="chart-area"><path class="line" d="M449,148.52L438.6316901867697,148.70000000000002L428.2633803735392,148.88L417.8666642320534,148.88L407.49835441882306,148.70000000000002L397.1300446055926,148.16L386.7617347923623,147.26L376.3650186508765,146L365.99670883764605,144.55999999999997L355.62839902441567,142.76L345.26008921118535,140.78L334.8633730696995,138.62L324.4950632564691,136.45999999999998L314.1267534432387,134.29999999999998L303.7584436300084,131.95999999999998L293.36172748852255,129.62L282.99341767529216,127.27999999999999L272.6251078620618,124.94L262.2567980488314,122.77999999999999L251.86008190734557,120.62L241.4917720941152,118.46L231.12346228088484,116.47999999999999L220.75515246765443,114.5L210.3584363261686,112.52L199.99012651293825,110.53999999999998L189.62181669970784,108.56L179.25350688647745,106.76L168.85679074499166,104.77999999999999L158.48848093176127,102.62L148.1201711185309,100.09999999999998L137.7518613053005,97.21999999999998L127.35514516381468,93.8L116.9868353505843,89.83999999999999L106.61852553735392,85.33999999999999L96.25021572412354,80.3L85.85349958263772,74.53999999999999L75.48518976940734,68.24L65.11687995617696,61.219999999999985L54.748570142946576,53.29999999999999L44.351854001460765,44.83999999999998L33.98354418823038,35.83999999999998L23.615234375,26.299999999999994" style="stroke: rgb(223, 47, 29); fill: none; stroke-width: 2.5px;"/></g></svg></svg></g><g transform="translate(10, 249)"><text style="fill: rgb(59, 59, 59); font-family: sans-serif; font-size: 0.7rem;"><tspan x="0" dy="0em">Data from datacatalog.worldbank.org via Data Commons</tspan></text></g></svg>